<svg xmlns="http://www.w3.org/2000/svg" width="30" height="26" viewBox="0 0 30 26" fill="none"><path d="M1.60571 17.7636C1.98742 21.0436 4.71428 23.6287 8.00571 23.9281C10.2823 24.1339 12.6183 24.3099 15 24.3099C17.3817 24.3099 19.7177 24.1339 21.9943 23.9281C25.2857 23.631 28.0126 21.0436 28.3943 17.7636C28.5771 16.2047 28.7143 14.6139 28.7143 13.0001C28.7143 11.3864 28.5771 9.79557 28.3943 8.23672C28.0126 4.95672 25.2857 2.37157 21.9943 2.07214C19.7177 1.86643 17.3817 1.69043 15 1.69043C12.6183 1.69043 10.2823 1.86643 8.00571 2.07214C4.71428 2.37157 1.98742 4.95672 1.60571 8.23672C1.40693 9.81699 1.30008 11.4075 1.28571 13.0001C1.28571 14.6139 1.42285 16.2047 1.60571 17.7636Z" stroke="#FF0000" stroke-width="2.28571" stroke-linecap="round" stroke-linejoin="round"></path><path d="M14.5063 18.166C17.304 16.6666 20.9314 14.4449 20.9314 13.0003C20.9314 11.5558 17.304 9.33404 14.5063 7.83461C13.0366 7.04833 11.3223 8.13633 11.3223 9.80261V16.198C11.3223 17.8643 13.0366 18.9523 14.5063 18.1638V18.166Z" stroke="#FF0000" stroke-width="2.28571" stroke-linecap="round" stroke-linejoin="round"></path></svg>